<?xml version="1.0" standalone="no"?>
<!DOCTYPE svg PUBLIC "-//W3C//DTD SVG 20010904//EN"
 "http://www.w3.org/TR/2001/REC-SVG-20010904/DTD/svg10.dtd">
<svg version="1.0" xmlns="http://www.w3.org/2000/svg"
 width="1806.000000pt" height="1806.000000pt" viewBox="0 0 1806.000000 1806.000000"
 preserveAspectRatio="xMidYMid meet">
<metadata>
Created by potrace 1.11, written by Peter Selinger 2001-2013
</metadata>
<g transform="translate(0.000000,1806.000000) scale(0.100000,-0.100000)"
fill="#000000" stroke="none">
<path d="M9055 18035 c-39 -26 -69 -74 -242 -386 -17 -31 -60 -108 -96 -171
-36 -62 -106 -187 -157 -278 -131 -233 -126 -224 -171 -303 -23 -40 -53 -92
-67 -117 -14 -25 -82 -146 -152 -270 -131 -231 -141 -248 -217 -385 -25 -44
-64 -114 -88 -155 -23 -41 -72 -127 -107 -190 -36 -63 -96 -169 -133 -235 -92
-162 -93 -182 -9 -320 34 -55 137 -224 229 -375 261 -427 336 -552 357 -590
11 -19 24 -39 28 -45 4 -5 53 -84 108 -175 54 -91 156 -259 226 -374 69 -115
126 -213 126 -218 0 -4 4 -8 9 -8 5 0 12 -8 15 -17 3 -10 12 -27 19 -38 17
-27 715 -1195 789 -1320 32 -55 63 -107 68 -115 5 -8 24 -40 42 -70 17 -30 39
-67 48 -81 8 -14 49 -83 90 -153 41 -70 85 -144 97 -164 12 -20 25 -44 29 -52
7 -14 54 -92 82 -135 6 -11 15 -27 19 -35 3 -8 21 -39 40 -68 18 -29 33 -54
33 -56 0 -2 17 -33 39 -67 75 -124 625 -1084 761 -1329 26 -47 59 -105 72
-130 240 -430 407 -743 623 -1165 59 -115 136 -264 170 -330 168 -323 194
-377 223 -465 31 -95 79 -261 86 -296 2 -10 14 -57 26 -104 12 -47 24 -96 26
-110 3 -14 13 -68 24 -120 21 -104 46 -264 55 -350 3 -30 8 -66 10 -80 5 -27
14 -130 21 -233 6 -87 6 -502 0 -557 -3 -25 -7 -76 -11 -115 -7 -82 -10 -105
-32 -243 -15 -93 -15 -105 -1 -119 19 -19 54 -4 68 30 6 12 27 49 48 82 39 62
104 174 162 280 18 33 43 78 55 100 156 282 485 955 485 991 0 8 5 14 10 14 6
0 10 6 10 13 0 7 9 31 19 53 19 39 166 384 216 504 14 36 33 79 41 97 8 17 14
36 14 42 0 6 5 19 10 29 13 23 89 217 190 487 197 526 503 1434 503 1492 0 12
-15 45 -32 73 -17 27 -31 52 -31 55 0 2 -13 26 -28 52 -16 26 -44 77 -64 113
-20 36 -84 151 -143 255 -59 105 -120 213 -135 240 -15 28 -69 124 -120 215
-51 91 -104 185 -118 210 -14 25 -78 140 -142 255 -65 116 -130 233 -145 260
-15 28 -31 55 -35 60 -4 6 -21 35 -37 65 -48 88 -191 344 -380 680 -11 19 -35
62 -53 95 -18 33 -39 69 -45 80 -7 11 -26 45 -42 75 -17 30 -40 73 -53 95 -59
104 -110 195 -140 250 -18 33 -52 94 -75 135 -24 41 -52 92 -64 113 -12 21
-39 70 -61 108 -22 39 -40 73 -40 75 0 2 -13 25 -29 51 -16 27 -104 183 -196
348 -182 325 -187 335 -283 505 -36 63 -78 140 -95 170 -16 30 -47 84 -67 120
-21 36 -69 121 -107 190 -39 69 -79 141 -90 160 -11 19 -35 62 -53 95 -66 121
-79 144 -212 380 -74 132 -151 269 -171 305 -129 229 -189 337 -198 350 -5 8
-37 67 -72 130 -112 203 -129 232 -212 380 -45 80 -97 172 -115 205 -32 57
-45 80 -90 160 -10 19 -36 65 -56 102 -21 37 -59 106 -86 152 -26 46 -48 85
-48 87 0 2 -15 29 -34 61 -18 32 -46 81 -61 108 -15 28 -78 140 -140 250 -61
110 -158 283 -215 385 -141 253 -146 258 -233 267 -44 4 -58 1 -92 -22z"/>
<path d="M6982 14433 c-18 -9 -44 -32 -58 -52 -39 -57 -76 -113 -94 -146 -20
-34 -221 -362 -255 -415 -51 -81 -64 -108 -68 -145 -7 -57 17 -113 66 -156 60
-54 131 -62 187 -21 14 10 96 140 182 288 290 495 288 491 246 574 -40 78
-131 110 -206 73z"/>
<path d="M7407 13617 c-41 -26 -62 -51 -103 -127 -17 -30 -63 -111 -103 -180
-41 -69 -82 -141 -93 -160 -34 -59 -248 -429 -306 -530 -30 -52 -79 -137 -108
-188 -83 -144 -165 -284 -184 -317 -9 -16 -52 -91 -95 -165 -42 -74 -81 -139
-85 -145 -4 -5 -20 -32 -35 -60 -15 -27 -103 -180 -195 -340 -493 -854 -582
-1008 -635 -1100 -32 -55 -68 -118 -80 -140 -13 -22 -59 -101 -102 -176 -44
-74 -83 -142 -87 -150 -4 -8 -12 -23 -19 -34 -7 -11 -27 -47 -46 -80 -32 -56
-111 -192 -131 -225 -5 -8 -36 -62 -68 -120 -33 -58 -71 -115 -84 -127 -44
-42 -99 -62 -158 -59 -152 7 -264 148 -225 281 6 22 90 175 185 340 95 165
247 428 338 585 90 157 188 326 217 375 60 104 309 534 337 583 42 75 100 176
185 322 130 225 317 549 343 595 12 22 26 45 30 50 4 6 18 30 32 55 14 25 75
132 137 238 86 149 113 205 118 241 17 149 -177 254 -290 157 -23 -20 -404
-644 -617 -1011 -35 -60 -68 -111 -72 -113 -4 -2 -8 -9 -8 -14 0 -6 -20 -43
-44 -82 -39 -63 -164 -275 -251 -426 -17 -30 -95 -163 -171 -295 -77 -132
-143 -247 -147 -255 -4 -8 -13 -24 -20 -35 -31 -51 -292 -511 -360 -635 -17
-30 -49 -89 -72 -130 -23 -41 -64 -115 -90 -165 -26 -49 -51 -94 -55 -100 -4
-5 -33 -59 -65 -120 -32 -60 -70 -132 -85 -160 -43 -78 -170 -324 -202 -390
-16 -33 -34 -69 -40 -80 -25 -44 -95 -191 -173 -360 -137 -298 -324 -768 -400
-1005 -47 -145 -100 -337 -120 -430 -1 -8 -8 -33 -14 -55 -12 -46 -47 -220
-55 -280 -4 -23 -8 -52 -11 -65 -6 -32 -32 -229 -39 -300 -24 -227 -24 -775
-2 -910 3 -14 7 -54 11 -89 3 -36 8 -79 10 -95 3 -17 7 -47 9 -66 7 -56 16
-111 27 -168 6 -29 12 -65 14 -80 2 -15 9 -49 15 -77 7 -27 14 -61 16 -75 10
-49 66 -266 85 -330 11 -36 22 -74 24 -84 6 -25 113 -345 125 -371 5 -11 23
-56 40 -100 33 -87 36 -93 74 -178 14 -32 26 -59 26 -62 0 -24 291 -600 350
-695 5 -8 51 -85 101 -170 176 -298 437 -678 554 -806 5 -6 34 -40 64 -75 64
-75 411 -423 491 -492 30 -26 64 -55 75 -66 11 -10 52 -44 90 -76 39 -31 79
-65 90 -74 65 -54 247 -190 355 -265 119 -84 453 -296 465 -296 3 0 24 -12 48
-27 62 -39 426 -222 547 -276 415 -181 833 -313 1272 -401 95 -19 191 -37 213
-40 22 -3 51 -8 65 -10 14 -3 48 -7 75 -11 28 -3 64 -8 80 -10 38 -6 101 -13
195 -23 144 -14 678 -5 792 13 13 2 58 6 101 10 43 4 88 8 100 10 29 5 112 15
162 21 22 2 51 6 65 9 14 3 44 8 66 11 23 2 50 6 60 8 11 2 39 7 64 11 25 4
54 9 65 11 11 3 36 7 55 10 50 8 210 42 310 66 47 11 92 21 100 23 8 2 35 8
60 15 25 7 52 14 60 15 23 5 120 32 160 45 19 6 44 13 54 15 55 12 458 152
531 184 11 5 61 26 110 46 131 55 204 88 355 165 116 58 190 99 366 200 67 39
214 137 329 221 209 151 310 236 495 415 69 66 154 147 190 179 68 61 256 249
325 326 127 139 365 437 445 556 8 11 48 68 87 126 147 214 317 510 443 772
58 120 181 410 196 460 2 6 15 42 29 80 106 280 243 815 269 1050 4 28 8 59
10 70 2 11 7 45 11 75 3 30 8 66 10 80 4 26 10 94 21 211 23 265 17 785 -11
999 -2 19 -7 62 -10 95 -6 61 -14 130 -21 175 -18 122 -35 230 -40 255 -11 58
-45 230 -49 245 -8 35 -27 117 -31 135 -53 266 -292 982 -381 1145 -199 363
-301 536 -323 547 -15 7 -31 8 -50 2 -25 -9 -34 -28 -94 -202 -88 -252 -163
-462 -243 -677 -36 -96 -76 -204 -89 -240 -13 -36 -28 -74 -33 -85 -5 -11 -37
-92 -71 -180 -34 -88 -68 -173 -75 -190 -7 -16 -38 -92 -70 -169 -59 -145
-219 -521 -262 -615 -226 -496 -491 -1026 -641 -1286 -6 -11 -46 -81 -88 -155
-229 -403 -538 -867 -772 -1160 -251 -314 -542 -613 -817 -839 -92 -75 -348
-217 -509 -281 -157 -62 -446 -146 -601 -175 -94 -17 -208 -35 -265 -41 -134
-15 -491 -8 -630 12 -433 64 -813 189 -1162 384 -106 59 -251 151 -256 163 -2
4 -8 7 -13 7 -6 0 -15 4 -22 10 -7 5 -46 36 -87 67 -41 32 -80 62 -86 68 -6 5
-31 26 -55 45 -59 47 -271 259 -340 340 -274 322 -485 704 -631 1145 -22 66
-41 127 -43 135 -2 8 -15 59 -29 114 -14 54 -28 108 -30 120 -21 107 -46 237
-50 261 -2 17 -7 49 -11 73 -8 53 -12 81 -20 162 -4 36 -8 76 -10 90 -25 175
-25 778 0 820 2 3 6 26 9 52 21 153 117 465 217 701 62 145 241 509 298 605
17 29 31 55 31 57 0 2 23 44 51 92 131 224 202 343 322 538 155 250 132 211
308 537 78 145 154 286 169 313 32 58 80 147 140 260 24 44 53 98 65 120 27
48 73 134 201 373 20 37 49 90 64 117 25 46 53 98 140 260 18 33 48 88 66 123
65 119 102 188 198 367 53 99 100 187 105 195 54 88 93 178 93 212 -1 67 -61
171 -110 189 -80 30 -157 10 -199 -53 -16 -26 -254 -437 -493 -853 -10 -16
-93 -160 -185 -320 -92 -159 -174 -303 -183 -320 -9 -16 -22 -37 -28 -45 -6
-8 -25 -40 -41 -70 -76 -139 -152 -264 -178 -291 -101 -108 -276 -77 -341 60
-34 70 -21 144 43 252 16 26 74 127 131 225 57 99 107 186 113 194 8 14 345
597 391 680 11 19 44 76 73 125 29 50 63 110 77 135 14 25 92 160 173 300 341
589 332 571 325 635 -3 33 -68 149 -98 178 -61 58 -155 55 -218 -8 -9 -8 -130
-215 -226 -382 -24 -43 -29 -53 -203 -353 -81 -140 -165 -286 -188 -325 -23
-38 -49 -83 -57 -100 -9 -16 -40 -70 -70 -120 -29 -49 -62 -106 -72 -125 -26
-45 -256 -443 -418 -725 -233 -401 -312 -540 -338 -585 -14 -25 -43 -73 -64
-108 -21 -34 -38 -65 -38 -68 0 -16 -51 -70 -88 -91 -52 -31 -141 -35 -194
-10 -76 36 -128 124 -121 207 4 58 0 50 261 500 30 52 72 124 92 160 21 36 85
146 142 245 58 99 116 200 130 225 14 25 51 90 83 145 98 168 357 617 375 649
9 17 40 70 69 118 28 48 51 89 51 93 0 3 8 18 19 33 10 15 45 74 79 132 33 58
99 172 146 253 47 81 86 150 86 153 0 2 11 23 25 45 14 22 60 99 102 172 42
73 84 146 93 162 189 326 185 317 183 374 -1 32 -8 60 -17 70 -9 10 -16 23
-16 29 0 15 -40 56 -69 72 -42 22 -105 20 -144 -3z m-692 -3921 c81 -42 119
-105 120 -196 l0 -65 -139 -240 c-176 -305 -172 -298 -197 -342 -73 -132 -119
-172 -210 -180 -120 -11 -216 65 -234 185 -8 55 5 93 70 206 62 107 66 114
214 373 123 214 158 254 237 271 48 11 105 6 139 -12z m-1007 -205 c20 -11 50
-32 65 -49 31 -32 64 -114 61 -152 -1 -14 -2 -36 -3 -50 0 -14 -24 -66 -52
-115 -29 -50 -60 -103 -69 -120 -9 -16 -52 -91 -95 -165 -43 -74 -139 -240
-213 -369 -74 -129 -154 -268 -178 -309 -24 -40 -44 -76 -44 -79 0 -21 -72
-90 -114 -109 -170 -79 -358 59 -331 243 5 37 52 123 275 508 9 17 97 170 195
340 98 171 191 329 206 352 65 95 194 127 297 74z m-1237 -476 c115 -39 182
-155 157 -270 -9 -38 -95 -198 -161 -297 -67 -101 -197 -132 -306 -72 -80 43
-132 133 -125 215 5 55 10 70 55 149 23 41 55 98 70 126 34 60 91 121 128 136
75 30 122 33 182 13z"/>
</g>
</svg>
